<?xml version="1.0" standalone="no"?>
<!DOCTYPE svg PUBLIC "-//W3C//DTD SVG 20010904//EN"
 "http://www.w3.org/TR/2001/REC-SVG-20010904/DTD/svg10.dtd">
<svg version="1.0" xmlns="http://www.w3.org/2000/svg"
 width="500.000000pt" height="500.000000pt" viewBox="0 0 500.000000 500.000000"
 preserveAspectRatio="xMidYMid meet">
<metadata>
Created by potrace 1.14, written by Peter Selinger 2001-2017
</metadata>
<g transform="translate(0.000000,500.000000) scale(0.100000,-0.100000)"
fill="#000000" stroke="none">
<path d="M2310 4433 l0 -553 -552 -2 -553 -3 0 -465 0 -465 540 -1 c297 -1
546 -2 553 -3 9 -1 12 -302 12 -1471 l0 -1470 468 2 467 3 1 1460 c1 803 2
1465 3 1470 1 7 187 10 551 10 l550 0 0 467 0 468 -552 0 -553 0 0 552 0 553
-467 0 -468 0 0 -552z m310 407 c-25 -22 -47 -39 -50 -39 -3 0 -25 18 -50 39
l-45 40 95 0 94 0 -44 -40z m450 36 c0 -3 -20 -21 -45 -42 l-45 -36 -45 41
-45 41 90 0 c50 0 90 -2 90 -4z m603 -1101 c291 0 533 -2 537 -5 4 -3 -11 -26
-34 -53 l-43 -47 -549 2 -549 3 0 545 -1 545 51 47 50 47 5 -542 5 -543 528 1z
m-948 420 l0 -654 -50 49 -50 50 0 565 0 566 45 39 c25 22 47 40 50 40 3 0 5
-295 5 -655z m-333 -473 l53 -52 -518 0 c-284 0 -517 3 -517 8 0 4 -16 24 -36
44 -19 21 -33 41 -31 45 3 5 228 8 501 8 l496 0 52 -53z m1853 -102 c0 -49 -3
-89 -6 -87 -3 1 -22 20 -41 43 l-37 40 40 47 c22 26 41 47 42 47 1 0 2 -40 2
-90z m-1520 -1878 c0 -886 -4 -1612 -8 -1612 -4 0 -27 18 -50 39 l-42 39 0
1524 0 1523 -603 3 -602 2 -38 41 c-20 23 -39 45 -40 50 -2 5 290 8 690 7
l693 -3 0 -1613z m1454 1568 l-42 -50 -566 0 -567 0 -49 50 -49 50 657 0 658
0 -42 -50z m66 -105 c0 -47 -2 -85 -6 -85 -8 0 -69 77 -69 88 0 11 60 82 69
82 3 0 6 -38 6 -85z m-1152 -183 l47 -48 -2 -1427 -3 -1427 -50 44 -50 43 0
1432 c0 787 2 1431 5 1431 3 0 27 -22 53 -48z"/>
<path d="M613 2842 c-35 -3 -43 -7 -43 -23 0 -15 8 -19 33 -21 37 -1 39 -2 89
-11 21 -5 42 -16 48 -27 15 -28 14 -1258 -1 -1276 -7 -9 -31 -14 -65 -14 -57
0 -104 -13 -104 -29 0 -7 75 -10 205 -10 194 1 205 2 205 20 0 14 -8 19 -27
20 -75 4 -90 6 -110 13 -16 5 -23 16 -24 34 -5 110 -3 1082 2 1082 4 0 9 -8
12 -17 3 -10 19 -56 37 -103 17 -47 42 -114 55 -150 13 -36 37 -103 55 -150
61 -165 163 -447 205 -570 53 -155 55 -160 66 -160 4 0 14 10 20 22 10 18 91
283 104 338 2 8 40 130 85 270 44 140 82 260 84 265 9 38 98 305 100 305 2 0
3 -259 2 -576 -1 -661 8 -604 -101 -604 -63 0 -110 -19 -86 -35 19 -11 571 -9
583 3 16 16 -9 24 -82 27 -82 4 -106 15 -111 52 -4 24 -4 1082 0 1200 1 36 5
45 30 58 16 8 54 16 85 18 63 4 85 17 62 36 -22 18 -365 21 -383 3 -7 -7 -19
-34 -27 -60 -8 -26 -74 -234 -146 -462 -73 -228 -137 -433 -143 -454 l-10 -40
-13 35 c-164 459 -355 973 -365 983 -8 9 -236 14 -326 8z"/>
<path d="M3665 2830 c-13 -21 9 -29 83 -31 64 -2 76 -5 88 -24 13 -19 15 -123
14 -711 0 -379 -3 -705 -6 -724 -8 -47 -32 -86 -61 -99 -57 -26 -73 -6 -40 50
61 102 -35 194 -153 148 -35 -13 -50 -40 -51 -91 -3 -105 59 -158 185 -158
105 0 221 71 279 172 48 83 51 118 51 791 1 698 -4 646 71 648 80 2 108 10 91
27 -13 12 -543 14 -551 2z"/>
</g>
</svg>
